<svg xmlns="http://www.w3.org/2000/svg" xmlns:xlink="http://www.w3.org/1999/xlink" version="1.1" id="Layer_1" x="0px" y="0px" viewBox="0 0 96 96" xml:space="preserve" enable-background="new 0 0 96 96">
  <style type="text/css">
    
	.st0{fill:#fff;}

  </style>
  <g id="XMLID_1_">
    <path id="XMLID_5_" class="st0" d="M74 30.1H48L43.3 24c-1.1-2.2-3.4-3.6-5.8-3.6H18.8c-1.8 0-3.3 1.5-3.3 3.3v45.5c0 3.6 2.9 6.5 6.5 6.5h52c3.6 0 6.5-2.9 6.5-6.5V36.6C80.5 33 77.6 30.1 74 30.1zM59.5 59.8l-4.6 4.6L48 57.5l-6.9 6.9 -4.6-4.6 6.9-6.9L36.5 46l4.6-4.6 6.9 6.9 6.9-6.9 4.6 4.6 -6.9 6.9L59.5 59.8z"/>
  </g>
</svg>
