<?xml version="1.0" encoding="utf-8"?>
<!-- Generator: Adobe Illustrator 16.0.0, SVG Export Plug-In . SVG Version: 6.00 Build 0)  -->
<!DOCTYPE svg PUBLIC "-//W3C//DTD SVG 1.1//EN" "http://www.w3.org/Graphics/SVG/1.1/DTD/svg11.dtd">
<svg version="1.1" id="Layer_1" xmlns="http://www.w3.org/2000/svg" xmlns:xlink="http://www.w3.org/1999/xlink" x="0px" y="0px"
	 width="512px" height="512px" viewBox="0 0 512 512" enable-background="new 0 0 512 512" xml:space="preserve">
<path fill-rule="evenodd" clip-rule="evenodd" fill="#fff" d="M480,0H32C14.313,0,0,14.328,0,32v336c0,17.688,14.313,32,32,32
	h448c17.688,0,32-14.313,32-32V32C512,14.328,497.688,0,480,0z M480,288c0,17.688-14.313,32-32,32H64c-17.688,0-32-14.313-32-32V64
	c0-17.688,14.313-32,32-32h384c17.688,0,32,14.313,32,32V288z M288,416c8.813,0,16,7.188,16,16v16
	c0,8.813,5.75,20.313,12.813,25.594l38.375,28.813C362.25,507.688,360.813,512,352,512H160c-8.813,0-10.25-4.313-3.188-9.594
	l38.375-28.813C202.25,468.313,208,456.813,208,448v-16c0-8.813,7.188-16,16-16H288z"/>
</svg>
